<svg xmlns="http://www.w3.org/2000/svg" xmlns:xlink="http://www.w3.org/1999/xlink" width="500" zoomAndPan="magnify" viewBox="0 0 375 374.999991" height="500" preserveAspectRatio="xMidYMid meet" version="1.0"><defs><g/><clipPath id="4fe58e0206"><path d="M 67 108 L 207 108 L 207 266 L 67 266 Z M 67 108 " clip-rule="nonzero"/></clipPath><clipPath id="92e9170999"><path d="M 83.09375 102.121094 L 219.191406 124.945312 L 194.382812 272.878906 L 58.285156 250.054688 Z M 83.09375 102.121094 " clip-rule="nonzero"/></clipPath><clipPath id="43228ae003"><path d="M 83.09375 102.121094 L 219.191406 124.945312 L 194.382812 272.878906 L 58.285156 250.054688 Z M 83.09375 102.121094 " clip-rule="nonzero"/></clipPath><clipPath id="a20295e7c2"><path d="M 76 154 L 142 154 L 142 163 L 76 163 Z M 76 154 " clip-rule="nonzero"/></clipPath><clipPath id="a195dc5608"><path d="M 83.09375 102.121094 L 219.191406 124.945312 L 194.382812 272.878906 L 58.285156 250.054688 Z M 83.09375 102.121094 " clip-rule="nonzero"/></clipPath><clipPath id="3db3582798"><path d="M 83.09375 102.121094 L 219.191406 124.945312 L 194.382812 272.878906 L 58.285156 250.054688 Z M 83.09375 102.121094 " clip-rule="nonzero"/></clipPath><clipPath id="273c55a2ab"><path d="M 132 211 L 156 211 L 156 264 L 132 264 Z M 132 211 " clip-rule="nonzero"/></clipPath><clipPath id="3837a95be9"><path d="M 83.09375 102.121094 L 219.191406 124.945312 L 194.382812 272.878906 L 58.285156 250.054688 Z M 83.09375 102.121094 " clip-rule="nonzero"/></clipPath><clipPath id="57692576e6"><path d="M 83.09375 102.121094 L 219.191406 124.945312 L 194.382812 272.878906 L 58.285156 250.054688 Z M 83.09375 102.121094 " clip-rule="nonzero"/></clipPath><clipPath id="92aa914e72"><path d="M 94 184 L 129 184 L 129 255 L 94 255 Z M 94 184 " clip-rule="nonzero"/></clipPath><clipPath id="67df47e19c"><path d="M 83.09375 102.121094 L 219.191406 124.945312 L 194.382812 272.878906 L 58.285156 250.054688 Z M 83.09375 102.121094 " clip-rule="nonzero"/></clipPath><clipPath id="c7651b54ba"><path d="M 83.09375 102.121094 L 219.191406 124.945312 L 194.382812 272.878906 L 58.285156 250.054688 Z M 83.09375 102.121094 " clip-rule="nonzero"/></clipPath></defs><rect x="-37.5" width="450" fill="#ffffff" y="-37.499999" height="449.999989" fill-opacity="1"/><rect x="-37.5" width="450" fill="#79b791" y="-37.499999" height="449.999989" fill-opacity="1"/><g clip-path="url(#4fe58e0206)"><g clip-path="url(#92e9170999)"><g clip-path="url(#43228ae003)"><path fill="#ffffff" d="M 151.75 265.742188 L 94.96875 256.222656 L 67.578125 194.699219 L 73.816406 157.496094 L 119.777344 108.273438 L 176.558594 117.796875 L 206.507812 162.769531 L 143.21875 160.898438 L 129.335938 185.617188 L 138.136719 209.53125 L 206.117188 202.890625 L 190.371094 236.316406 Z M 99.472656 250.40625 L 150.054688 258.890625 L 185.183594 232.125 L 195.394531 210.449219 L 133.78125 216.464844 L 122.222656 185.050781 L 139.488281 154.304688 L 194.164062 155.921875 L 172.722656 123.722656 L 122.136719 115.238281 L 79.882812 160.492188 L 74.289062 193.847656 Z M 99.472656 250.40625 " fill-opacity="1" fill-rule="nonzero"/></g></g></g><g clip-path="url(#a20295e7c2)"><g clip-path="url(#a195dc5608)"><g clip-path="url(#3db3582798)"><path fill="#ffffff" d="M 76.777344 155.757812 L 141.28125 154.355469 L 141.421875 160.835938 L 76.917969 162.238281 Z M 76.777344 155.757812 " fill-opacity="1" fill-rule="nonzero"/></g></g></g><g clip-path="url(#273c55a2ab)"><g clip-path="url(#3837a95be9)"><g clip-path="url(#57692576e6)"><path fill="#ffffff" d="M 132.886719 214.007812 L 139.039062 211.980469 L 155.238281 261.144531 L 149.082031 263.171875 Z M 132.886719 214.007812 " fill-opacity="1" fill-rule="nonzero"/></g></g></g><g clip-path="url(#92aa914e72)"><g clip-path="url(#67df47e19c)"><g clip-path="url(#c7651b54ba)"><path fill="#ffffff" d="M 94.230469 252.0625 L 122.789062 184.082031 L 128.765625 186.59375 L 100.207031 254.574219 Z M 94.230469 252.0625 " fill-opacity="1" fill-rule="nonzero"/></g></g></g><g fill="#ffffff" fill-opacity="1"><g transform="translate(139.746726, 204.745788)"><g><path d="M 19.546875 -0.921875 C 16.710938 -0.722656 14.195312 -1.023438 12 -1.828125 C 9.8125 -2.640625 7.953125 -3.796875 6.421875 -5.296875 C 4.890625 -6.804688 3.695312 -8.546875 2.84375 -10.515625 C 2 -12.492188 1.5 -14.550781 1.34375 -16.6875 C 1.195312 -18.820312 1.398438 -20.925781 1.953125 -23 C 2.515625 -25.070312 3.445312 -26.960938 4.75 -28.671875 C 6.050781 -30.390625 7.726562 -31.796875 9.78125 -32.890625 C 11.84375 -33.992188 14.289062 -34.644531 17.125 -34.84375 C 19.945312 -35.050781 22.457031 -34.753906 24.65625 -33.953125 C 26.851562 -33.160156 28.710938 -32.007812 30.234375 -30.5 C 31.765625 -28.988281 32.957031 -27.242188 33.8125 -25.265625 C 34.664062 -23.296875 35.164062 -21.242188 35.3125 -19.109375 C 35.46875 -16.972656 35.265625 -14.867188 34.703125 -12.796875 C 34.140625 -10.722656 33.207031 -8.832031 31.90625 -7.125 C 30.613281 -5.414062 28.9375 -4.003906 26.875 -2.890625 C 24.8125 -1.785156 22.367188 -1.128906 19.546875 -0.921875 Z M 19.0625 -7.75 C 20.925781 -7.882812 22.507812 -8.367188 23.8125 -9.203125 C 25.113281 -10.035156 26.117188 -11.085938 26.828125 -12.359375 C 27.535156 -13.628906 27.972656 -14.988281 28.140625 -16.4375 C 28.316406 -17.894531 28.21875 -19.335938 27.84375 -20.765625 C 27.46875 -22.203125 26.835938 -23.492188 25.953125 -24.640625 C 25.066406 -25.796875 23.921875 -26.691406 22.515625 -27.328125 C 21.109375 -27.972656 19.472656 -28.226562 17.609375 -28.09375 C 15.734375 -27.957031 14.144531 -27.472656 12.84375 -26.640625 C 11.550781 -25.804688 10.550781 -24.753906 9.84375 -23.484375 C 9.132812 -22.222656 8.6875 -20.859375 8.5 -19.390625 C 8.320312 -17.921875 8.425781 -16.476562 8.8125 -15.0625 C 9.195312 -13.644531 9.832031 -12.359375 10.71875 -11.203125 C 11.601562 -10.046875 12.742188 -9.144531 14.140625 -8.5 C 15.546875 -7.863281 17.1875 -7.613281 19.0625 -7.75 Z M 19.0625 -7.75 "/></g></g></g><g fill="#ffffff" fill-opacity="1"><g transform="translate(178.726116, 201.957126)"><g><path d="M 26.484375 -13.40625 C 26.640625 -11.175781 26.34375 -9.226562 25.59375 -7.5625 C 24.851562 -5.90625 23.8125 -4.550781 22.46875 -3.5 C 21.125 -2.457031 19.613281 -1.710938 17.9375 -1.265625 C 16.269531 -0.828125 14.570312 -0.707031 12.84375 -0.90625 C 11.125 -1.101562 9.523438 -1.625 8.046875 -2.46875 C 6.578125 -3.320312 5.351562 -4.515625 4.375 -6.046875 C 3.394531 -7.585938 2.828125 -9.472656 2.671875 -11.703125 L 1.125 -33.15625 L 7.71875 -33.625 L 9.25 -12.21875 C 9.351562 -10.832031 9.789062 -9.753906 10.5625 -8.984375 C 11.34375 -8.210938 12.269531 -7.726562 13.34375 -7.53125 C 14.425781 -7.332031 15.488281 -7.40625 16.53125 -7.75 C 17.570312 -8.101562 18.425781 -8.71875 19.09375 -9.59375 C 19.757812 -10.46875 20.039062 -11.597656 19.9375 -12.984375 L 18.40625 -34.390625 L 24.9375 -34.859375 Z M 26.484375 -13.40625 "/></g></g></g><g fill="#ffffff" fill-opacity="1"><g transform="translate(209.605889, 199.747926)"><g><path d="M 20.078125 -1.4375 L 12.53125 -13.53125 L 9.359375 -13.296875 L 10.265625 -0.734375 L 3.671875 -0.265625 L 1.3125 -33.171875 L 14.296875 -34.09375 C 16.265625 -34.238281 17.960938 -33.953125 19.390625 -33.234375 C 20.816406 -32.523438 21.957031 -31.546875 22.8125 -30.296875 C 23.664062 -29.046875 24.238281 -27.664062 24.53125 -26.15625 C 24.832031 -24.65625 24.828125 -23.160156 24.515625 -21.671875 C 24.203125 -20.179688 23.585938 -18.835938 22.671875 -17.640625 C 21.753906 -16.453125 20.503906 -15.570312 18.921875 -15 L 27.515625 -1.96875 Z M 8.90625 -19.703125 L 14.703125 -20.125 C 15.585938 -20.1875 16.28125 -20.476562 16.78125 -21 C 17.289062 -21.53125 17.609375 -22.171875 17.734375 -22.921875 C 17.867188 -23.671875 17.816406 -24.40625 17.578125 -25.125 C 17.347656 -25.851562 16.941406 -26.441406 16.359375 -26.890625 C 15.785156 -27.347656 15.054688 -27.546875 14.171875 -27.484375 L 8.375 -27.0625 Z M 8.90625 -19.703125 "/></g></g></g><g fill="#ffffff" fill-opacity="1"><g transform="translate(237.816471, 197.729685)"><g><path d="M 15.6875 -1.125 L 9.125 -0.65625 L 7.234375 -26.984375 L -0.96875 -26.390625 L -1.421875 -32.921875 L 21.546875 -34.5625 L 22 -28.03125 L 13.796875 -27.453125 Z M 15.6875 -1.125 "/></g></g></g><g fill="#ffffff" fill-opacity="1"><g transform="translate(262.989698, 195.928743)"><g><path d="M 1.3125 -33.171875 L 7.90625 -33.640625 L 9.796875 -7.3125 L 20.25 -8.0625 L 20.71875 -1.484375 L 3.671875 -0.265625 Z M 1.3125 -33.171875 "/></g></g></g><g fill="#ffffff" fill-opacity="1"><g transform="translate(285.677814, 194.305591)"><g><path d="M 11.734375 -0.84375 L 10.671875 -15.671875 L -2.078125 -32.921875 L 5.9375 -33.5 L 13.46875 -22.65625 L 19.359375 -34.453125 L 27.421875 -35.03125 L 17.203125 -16.140625 L 18.265625 -1.3125 Z M 11.734375 -0.84375 "/></g></g></g></svg>